<?xml version="1.0" standalone="no"?>
<!DOCTYPE svg PUBLIC "-//W3C//DTD SVG 20010904//EN"
 "http://www.w3.org/TR/2001/REC-SVG-20010904/DTD/svg10.dtd">
<svg version="1.0" xmlns="http://www.w3.org/2000/svg"
 width="115.000000pt" height="115.000000pt" viewBox="0 0 115.000000 115.000000"
 preserveAspectRatio="xMidYMid meet">
<metadata>
Created by potrace 1.14, written by Peter Selinger 2001-2017
</metadata>
<g transform="translate(0.000000,115.000000) scale(0.100000,-0.100000)"
fill="#000000" stroke="none">
<path d="M135 1073 c-44 -24 -82 -71 -107 -133 -32 -80 -32 -277 1 -405 55
-216 184 -410 306 -461 71 -29 150 -8 189 51 60 91 75 143 21 72 -67 -88 -125
-108 -195 -66 -155 93 -263 342 -263 604 0 127 21 205 69 253 35 35 35 35 107
29 44 -4 117 -21 188 -45 163 -56 245 -68 313 -48 l41 12 -76 6 c-54 5 -106
18 -185 48 -204 78 -249 92 -314 95 -46 3 -74 -1 -95 -12z"/>
<path d="M838 1075 c-2 -2 -23 -5 -48 -8 -41 -5 -100 -22 -100 -29 0 -2 32 -1
72 0 118 6 204 -32 229 -101 8 -22 25 -40 52 -55 22 -12 42 -20 45 -18 2 3 -7
29 -21 59 -39 86 -93 129 -182 146 -24 5 -46 7 -47 6z"/>
<path d="M257 823 c-2 -4 -4 -108 -4 -230 0 -180 3 -223 14 -223 10 0 13 38
13 192 l0 193 95 -193 c53 -107 100 -192 108 -192 7 0 22 19 32 43 32 73 154
320 162 328 5 5 8 -74 7 -174 0 -100 3 -187 7 -192 7 -9 28 -11 71 -6 4 1 9
99 10 218 l3 217 60 2 c75 2 77 2 71 13 -3 4 -41 8 -83 7 l-78 -1 0 -215 c-1
-194 -2 -215 -18 -218 -15 -3 -17 16 -19 215 -2 123 -7 217 -12 216 -12 -2
-23 -21 -125 -232 l-90 -185 -101 204 c-102 208 -114 228 -123 213z"/>
<path d="M925 822 c-13 -13 -2 -22 28 -22 54 -1 114 -45 146 -108 52 -102 4
-245 -98 -288 -34 -15 -161 -22 -180 -10 -4 3 -8 53 -8 111 0 99 -5 126 -19
113 -8 -8 -9 -232 -1 -245 8 -12 170 -7 214 8 49 16 111 84 128 141 41 139
-35 274 -167 298 -21 4 -40 5 -43 2z"/>
</g>
</svg>
